solid Exported from Blender-2.91.2
facet normal 0.785334 0.549065 -0.285968
outer loop
vertex -1.618321 -0.585259 16.155359
vertex -4.786689 0.410530 9.366234
vertex -11.257946 8.095392 6.349796
endloop
endfacet
facet normal 0.785334 0.549065 -0.285969
outer loop
vertex 26.723873 -34.350414 29.159618
vertex 18.679869 -29.049387 17.247061
vertex 6.758133 -11.314124 18.559351
endloop
endfacet
facet normal 0.785334 0.549065 -0.285968
outer loop
vertex -6.758133 -11.314113 -18.559361
vertex -11.309464 0.783582 -7.830515
vertex -9.366236 -0.410532 -4.786691
endloop
endfacet
facet normal 0.785334 0.549065 -0.285968
outer loop
vertex -6.758133 -11.314113 -18.559361
vertex -9.366236 -0.410532 -4.786691
vertex -6.349792 -8.095390 -11.257947
endloop
endfacet
facet normal 0.785334 0.549065 -0.285969
outer loop
vertex -9.001475 10.155398 16.501839
vertex 26.723873 -34.350414 29.159618
vertex 6.758133 -11.314124 18.559351
endloop
endfacet
facet normal 0.785334 0.549065 -0.285968
outer loop
vertex 6.758133 -11.314124 18.559351
vertex -6.758133 -11.314113 -18.559361
vertex -6.349792 -8.095390 -11.257947
endloop
endfacet
facet normal 0.785334 0.549065 -0.285969
outer loop
vertex 6.758133 -11.314124 18.559351
vertex -6.349792 -8.095390 -11.257947
vertex -3.701354 -3.891599 4.086636
endloop
endfacet
facet normal 0.785334 0.549066 -0.285968
outer loop
vertex -1.618321 -0.585259 16.155359
vertex -11.257946 8.095392 6.349796
vertex -9.001475 10.155398 16.501839
endloop
endfacet
facet normal 0.785334 0.549065 -0.285968
outer loop
vertex 6.758133 -11.314124 18.559351
vertex -3.701354 -3.891599 4.086636
vertex -1.618321 -0.585259 16.155359
endloop
endfacet
facet normal 0.785334 0.549066 -0.285968
outer loop
vertex -1.618321 -0.585259 16.155359
vertex -9.001475 10.155398 16.501839
vertex 6.758133 -11.314124 18.559351
endloop
endfacet
facet normal -0.627402 0.371088 -0.684587
outer loop
vertex -29.159634 34.350403 26.723888
vertex 29.159634 34.350418 -26.723866
vertex 17.247066 29.049389 -18.679859
endloop
endfacet
facet normal -0.627402 0.371088 -0.684587
outer loop
vertex 17.247066 29.049389 -18.679859
vertex 6.652764 10.285622 -19.141630
vertex -9.060825 3.891599 -8.206581
endloop
endfacet
facet normal -0.627402 0.371089 -0.684587
outer loop
vertex -9.060825 3.891599 -8.206581
vertex -2.652950 0.451296 -15.944055
vertex -11.309464 0.783582 -7.830515
endloop
endfacet
facet normal -0.627402 0.371088 -0.684587
outer loop
vertex -11.309464 0.783582 -7.830515
vertex -6.758133 -11.314113 -18.559361
vertex -18.679869 -29.049379 -17.247076
endloop
endfacet
facet normal -0.627402 0.371089 -0.684587
outer loop
vertex -18.679869 -29.049379 -17.247076
vertex -19.141636 -10.285615 -6.652768
vertex -16.501835 -10.155400 -9.001479
endloop
endfacet
facet normal -0.627402 0.371088 -0.684587
outer loop
vertex -29.159634 34.350403 26.723888
vertex 17.247066 29.049389 -18.679859
vertex -9.060825 3.891599 -8.206581
endloop
endfacet
facet normal -0.627402 0.371088 -0.684588
outer loop
vertex -11.309464 0.783582 -7.830515
vertex -18.679869 -29.049379 -17.247076
vertex -16.501835 -10.155400 -9.001479
endloop
endfacet
facet normal -0.627402 0.371089 -0.684587
outer loop
vertex -29.159634 34.350403 26.723888
vertex -9.060825 3.891599 -8.206581
vertex -11.309464 0.783582 -7.830515
endloop
endfacet
facet normal -0.627402 0.371089 -0.684587
outer loop
vertex -29.159634 34.350403 26.723888
vertex -11.309464 0.783582 -7.830515
vertex -16.501835 -10.155400 -9.001479
endloop
endfacet
facet normal 0.684587 -0.371088 -0.627402
outer loop
vertex 17.247066 29.049389 -18.679859
vertex 18.559355 11.314120 -6.758130
vertex 7.830515 -0.783576 -11.309464
endloop
endfacet
facet normal 0.684587 -0.371088 -0.627403
outer loop
vertex 7.830515 -0.783576 -11.309464
vertex 15.944057 -0.451290 -2.652950
vertex 8.206584 -3.891595 -9.060828
endloop
endfacet
facet normal 0.684587 -0.371088 -0.627403
outer loop
vertex 8.206584 -3.891595 -9.060828
vertex 19.141636 -10.285620 6.652760
vertex 18.679869 -29.049387 17.247061
endloop
endfacet
facet normal 0.684587 -0.371088 -0.627403
outer loop
vertex 18.679869 -29.049387 17.247061
vertex 26.723873 -34.350414 29.159618
vertex -26.723873 -34.350399 -29.159641
endloop
endfacet
facet normal 0.684587 -0.371088 -0.627403
outer loop
vertex 9.001475 10.155410 -16.501831
vertex 6.652764 10.285622 -19.141630
vertex 17.247066 29.049389 -18.679859
endloop
endfacet
facet normal 0.684587 -0.371088 -0.627402
outer loop
vertex 8.206584 -3.891595 -9.060828
vertex 18.679869 -29.049387 17.247061
vertex -26.723873 -34.350399 -29.159641
endloop
endfacet
facet normal 0.684588 -0.371088 -0.627402
outer loop
vertex 9.001475 10.155410 -16.501831
vertex 17.247066 29.049389 -18.679859
vertex 7.830515 -0.783576 -11.309464
endloop
endfacet
facet normal 0.684587 -0.371088 -0.627403
outer loop
vertex 7.830515 -0.783576 -11.309464
vertex 8.206584 -3.891595 -9.060828
vertex -26.723873 -34.350399 -29.159641
endloop
endfacet
facet normal 0.684587 -0.371088 -0.627402
outer loop
vertex 7.830515 -0.783576 -11.309464
vertex -26.723873 -34.350399 -29.159641
vertex 9.001475 10.155410 -16.501831
endloop
endfacet
facet normal 0.627403 0.371087 0.684588
outer loop
vertex 29.159634 34.350418 -26.723866
vertex -29.159634 34.350403 26.723888
vertex -17.247066 29.049374 18.679874
endloop
endfacet
facet normal 0.627402 0.371088 0.684587
outer loop
vertex -17.247066 29.049374 18.679874
vertex -6.652764 10.285610 19.141638
vertex 9.060825 3.891593 8.206585
endloop
endfacet
facet normal 0.627402 0.371088 0.684587
outer loop
vertex 9.060825 3.891593 8.206585
vertex 2.652950 0.451285 15.944055
vertex 11.309464 0.783577 7.830515
endloop
endfacet
facet normal 0.627402 0.371088 0.684588
outer loop
vertex 11.309464 0.783577 7.830515
vertex 6.758133 -11.314124 18.559351
vertex 18.679869 -29.049387 17.247061
endloop
endfacet
facet normal 0.627402 0.371088 0.684587
outer loop
vertex 18.679869 -29.049387 17.247061
vertex 19.141636 -10.285620 6.652760
vertex 16.501835 -10.155408 9.001472
endloop
endfacet
facet normal 0.627402 0.371088 0.684587
outer loop
vertex 29.159634 34.350418 -26.723866
vertex -17.247066 29.049374 18.679874
vertex 9.060825 3.891593 8.206585
endloop
endfacet
facet normal 0.627403 0.371088 0.684587
outer loop
vertex 11.309464 0.783577 7.830515
vertex 18.679869 -29.049387 17.247061
vertex 16.501835 -10.155408 9.001472
endloop
endfacet
facet normal 0.627402 0.371088 0.684587
outer loop
vertex 29.159634 34.350418 -26.723866
vertex 9.060825 3.891593 8.206585
vertex 11.309464 0.783577 7.830515
endloop
endfacet
facet normal 0.627402 0.371088 0.684587
outer loop
vertex 11.309464 0.783577 7.830515
vertex 16.501835 -10.155408 9.001472
vertex 29.159634 34.350418 -26.723866
endloop
endfacet
facet normal -0.684587 -0.371088 0.627402
outer loop
vertex -17.247066 29.049374 18.679874
vertex -18.559357 11.314116 6.758137
vertex -7.830515 -0.783583 11.309464
endloop
endfacet
facet normal -0.684587 -0.371089 0.627402
outer loop
vertex -7.830515 -0.783583 11.309464
vertex -15.944057 -0.451291 2.652950
vertex -8.206584 -3.891599 9.060824
endloop
endfacet
facet normal -0.684587 -0.371088 0.627402
outer loop
vertex -8.206584 -3.891599 9.060824
vertex -19.141636 -10.285615 -6.652768
vertex -18.679869 -29.049379 -17.247076
endloop
endfacet
facet normal -0.684587 -0.371089 0.627402
outer loop
vertex -18.679869 -29.049379 -17.247076
vertex -26.723873 -34.350399 -29.159641
vertex 26.723873 -34.350414 29.159618
endloop
endfacet
facet normal -0.684587 -0.371088 0.627403
outer loop
vertex -9.001475 10.155398 16.501839
vertex -6.652764 10.285610 19.141638
vertex -17.247066 29.049374 18.679874
endloop
endfacet
facet normal -0.684587 -0.371088 0.627402
outer loop
vertex -8.206584 -3.891599 9.060824
vertex -18.679869 -29.049379 -17.247076
vertex 26.723873 -34.350414 29.159618
endloop
endfacet
facet normal -0.684588 -0.371088 0.627402
outer loop
vertex -9.001475 10.155398 16.501839
vertex -17.247066 29.049374 18.679874
vertex -7.830515 -0.783583 11.309464
endloop
endfacet
facet normal -0.684587 -0.371089 0.627402
outer loop
vertex -7.830515 -0.783583 11.309464
vertex -8.206584 -3.891599 9.060824
vertex 26.723873 -34.350414 29.159618
endloop
endfacet
facet normal -0.684587 -0.371088 0.627402
outer loop
vertex -7.830515 -0.783583 11.309464
vertex 26.723873 -34.350414 29.159618
vertex -9.001475 10.155398 16.501839
endloop
endfacet
facet normal -0.785334 0.549065 0.285969
outer loop
vertex 1.618321 -0.585248 -16.155359
vertex 4.786689 0.410537 -9.366234
vertex 11.257946 8.095396 -6.349791
endloop
endfacet
facet normal -0.785334 0.549065 0.285969
outer loop
vertex -26.723873 -34.350399 -29.159641
vertex -18.679869 -29.049379 -17.247076
vertex -6.758133 -11.314113 -18.559361
endloop
endfacet
facet normal -0.785334 0.549065 0.285969
outer loop
vertex 6.758133 -11.314124 18.559351
vertex 11.309464 0.783577 7.830515
vertex 9.366236 -0.410535 4.786691
endloop
endfacet
facet normal 0.704361 -0.704361 -0.088045
outer loop
vertex 6.349792 -8.095398 11.257943
vertex 3.701354 -3.891596 -4.086637
vertex 1.618321 -0.585248 -16.155359
endloop
endfacet
facet normal -0.785334 0.549065 0.285969
outer loop
vertex 6.758133 -11.314124 18.559351
vertex 9.366236 -0.410535 4.786691
vertex 6.349792 -8.095398 11.257943
endloop
endfacet
facet normal -0.785334 0.549065 0.285969
outer loop
vertex 9.001475 10.155410 -16.501831
vertex -26.723873 -34.350399 -29.159641
vertex -6.758133 -11.314113 -18.559361
endloop
endfacet
facet normal -0.785334 0.549065 0.285969
outer loop
vertex -6.758133 -11.314113 -18.559361
vertex 6.758133 -11.314124 18.559351
vertex 6.349792 -8.095398 11.257943
endloop
endfacet
facet normal -0.785334 0.549065 0.285969
outer loop
vertex 1.618321 -0.585248 -16.155359
vertex 11.257946 8.095396 -6.349791
vertex 9.001475 10.155410 -16.501831
endloop
endfacet
facet normal -0.785334 0.549065 0.285969
outer loop
vertex -6.758133 -11.314113 -18.559361
vertex 6.349792 -8.095398 11.257943
vertex 1.618321 -0.585248 -16.155359
endloop
endfacet
facet normal -0.785335 0.549065 0.285968
outer loop
vertex 9.001475 10.155410 -16.501831
vertex -6.758133 -11.314113 -18.559361
vertex 1.618321 -0.585248 -16.155359
endloop
endfacet
facet normal 0.285969 -0.549065 0.785334
outer loop
vertex 11.257946 8.095396 -6.349791
vertex 4.786689 0.410537 -9.366234
vertex 7.830515 -0.783576 -11.309464
endloop
endfacet
facet normal 0.285969 -0.549065 0.785334
outer loop
vertex -18.559357 11.314116 6.758137
vertex -17.247066 29.049374 18.679874
vertex -29.159634 34.350403 26.723888
endloop
endfacet
facet normal 0.285968 -0.549065 0.785334
outer loop
vertex -16.501835 -10.155400 -9.001479
vertex -6.349792 -8.095390 -11.257947
vertex -9.366236 -0.410532 -4.786691
endloop
endfacet
facet normal 0.120386 -0.240772 0.963087
outer loop
vertex -16.155361 0.585254 -1.618320
vertex -4.086634 3.891599 -3.701353
vertex 11.257946 8.095396 -6.349791
endloop
endfacet
facet normal 0.285968 -0.549066 0.785334
outer loop
vertex -16.501835 -10.155400 -9.001479
vertex -9.366236 -0.410532 -4.786691
vertex -16.155361 0.585254 -1.618320
endloop
endfacet
facet normal 0.285968 -0.549066 0.785334
outer loop
vertex -18.559357 11.314116 6.758137
vertex -29.159634 34.350403 26.723888
vertex -16.501835 -10.155400 -9.001479
endloop
endfacet
facet normal 0.285969 -0.549065 0.785334
outer loop
vertex 11.257946 8.095396 -6.349791
vertex 7.830515 -0.783576 -11.309464
vertex 18.559355 11.314120 -6.758130
endloop
endfacet
facet normal 0.285968 -0.549066 0.785334
outer loop
vertex -18.559357 11.314116 6.758137
vertex -16.501835 -10.155400 -9.001479
vertex -16.155361 0.585254 -1.618320
endloop
endfacet
facet normal 0.285969 -0.549066 0.785334
outer loop
vertex -16.155361 0.585254 -1.618320
vertex 11.257946 8.095396 -6.349791
vertex 18.559355 11.314120 -6.758130
endloop
endfacet
facet normal 0.285969 -0.549065 0.785334
outer loop
vertex 18.559355 11.314120 -6.758130
vertex -18.559357 11.314116 6.758137
vertex -16.155361 0.585254 -1.618320
endloop
endfacet
facet normal -0.285969 -0.549065 -0.785334
outer loop
vertex 18.559355 11.314120 -6.758130
vertex 17.247066 29.049389 -18.679859
vertex 29.159634 34.350418 -26.723866
endloop
endfacet
facet normal -0.285968 -0.549065 -0.785334
outer loop
vertex 16.501835 -10.155408 9.001472
vertex 6.349792 -8.095398 11.257943
vertex 9.366236 -0.410535 4.786691
endloop
endfacet
facet normal -0.514496 -0.514496 -0.685994
outer loop
vertex 16.155361 0.585253 1.618320
vertex 4.086637 3.891595 3.701356
vertex -11.257946 8.095392 6.349796
endloop
endfacet
facet normal -0.285969 -0.549065 -0.785334
outer loop
vertex 16.501835 -10.155408 9.001472
vertex 9.366236 -0.410535 4.786691
vertex 16.155361 0.585253 1.618320
endloop
endfacet
facet normal -0.285969 -0.549065 -0.785334
outer loop
vertex 18.559355 11.314120 -6.758130
vertex 29.159634 34.350418 -26.723866
vertex 16.501835 -10.155408 9.001472
endloop
endfacet
facet normal -0.285968 -0.549065 -0.785334
outer loop
vertex -4.786689 0.410530 9.366234
vertex -7.830515 -0.783583 11.309464
vertex -18.559357 11.314116 6.758137
endloop
endfacet
facet normal -0.285968 -0.549065 -0.785334
outer loop
vertex -11.257946 8.095392 6.349796
vertex -4.786689 0.410530 9.366234
vertex -18.559357 11.314116 6.758137
endloop
endfacet
facet normal -0.285969 -0.549065 -0.785334
outer loop
vertex 18.559355 11.314120 -6.758130
vertex 16.501835 -10.155408 9.001472
vertex 16.155361 0.585253 1.618320
endloop
endfacet
facet normal -0.285969 -0.549066 -0.785334
outer loop
vertex 16.155361 0.585253 1.618320
vertex -11.257946 8.095392 6.349796
vertex -18.559357 11.314116 6.758137
endloop
endfacet
facet normal -0.285969 -0.549065 -0.785334
outer loop
vertex -18.559357 11.314116 6.758137
vertex 18.559355 11.314120 -6.758130
vertex 16.155361 0.585253 1.618320
endloop
endfacet
facet normal -0.240335 -0.945968 -0.217677
outer loop
vertex -9.366236 -0.410532 -4.786691
vertex -11.309464 0.783582 -7.830515
vertex -2.652950 0.451296 -15.944055
endloop
endfacet
facet normal -0.240335 -0.945968 -0.217676
outer loop
vertex -2.652950 0.451296 -15.944055
vertex 1.618321 -0.585248 -16.155359
vertex 3.701354 -3.891596 -4.086637
endloop
endfacet
facet normal -0.446136 -0.283013 -0.849039
outer loop
vertex 3.701354 -3.891596 -4.086637
vertex -3.701354 -3.891599 4.086636
vertex -8.206584 -3.891599 9.060824
endloop
endfacet
facet normal -0.240334 -0.945968 -0.217677
outer loop
vertex -8.206584 -3.891599 9.060824
vertex -15.944057 -0.451291 2.652950
vertex -16.155361 0.585254 -1.618320
endloop
endfacet
facet normal -0.240334 -0.945968 -0.217676
outer loop
vertex -9.366236 -0.410532 -4.786691
vertex -2.652950 0.451296 -15.944055
vertex 3.701354 -3.891596 -4.086637
endloop
endfacet
facet normal -0.240335 -0.945969 -0.217676
outer loop
vertex -8.206584 -3.891599 9.060824
vertex -16.155361 0.585254 -1.618320
vertex -9.366236 -0.410532 -4.786691
endloop
endfacet
facet normal -0.240334 -0.945968 -0.217676
outer loop
vertex -9.366236 -0.410532 -4.786691
vertex 3.701354 -3.891596 -4.086637
vertex -8.206584 -3.891599 9.060824
endloop
endfacet
facet normal 0.240334 0.945969 0.217676
outer loop
vertex 3.701354 -3.891596 -4.086637
vertex 6.349792 -8.095398 11.257943
vertex 16.501835 -10.155408 9.001472
endloop
endfacet
facet normal 0.240334 0.945969 0.217676
outer loop
vertex 16.501835 -10.155408 9.001472
vertex 19.141636 -10.285620 6.652760
vertex 8.206584 -3.891595 -9.060828
endloop
endfacet
facet normal 0.240334 0.945968 0.217676
outer loop
vertex 16.501835 -10.155408 9.001472
vertex 8.206584 -3.891595 -9.060828
vertex 3.701354 -3.891596 -4.086637
endloop
endfacet
facet normal -0.217676 0.945969 0.240335
outer loop
vertex 2.652950 0.451285 15.944055
vertex 9.060825 3.891593 8.206585
vertex 4.086637 3.891595 3.701356
endloop
endfacet
facet normal -0.217676 0.945968 0.240335
outer loop
vertex 4.086637 3.891595 3.701356
vertex -4.086634 3.891599 -3.701353
vertex -16.155361 0.585254 -1.618320
endloop
endfacet
facet normal -0.217676 0.945968 0.240335
outer loop
vertex -16.155361 0.585254 -1.618320
vertex -15.944057 -0.451291 2.652950
vertex -7.830515 -0.783583 11.309464
endloop
endfacet
facet normal -0.217676 0.945968 0.240335
outer loop
vertex -4.786689 0.410530 9.366234
vertex -1.618321 -0.585259 16.155359
vertex 2.652950 0.451285 15.944055
endloop
endfacet
facet normal -0.217676 0.945968 0.240335
outer loop
vertex -16.155361 0.585254 -1.618320
vertex -7.830515 -0.783583 11.309464
vertex -4.786689 0.410530 9.366234
endloop
endfacet
facet normal -0.217676 0.945969 0.240335
outer loop
vertex 2.652950 0.451285 15.944055
vertex 4.086637 3.891595 3.701356
vertex -16.155361 0.585254 -1.618320
endloop
endfacet
facet normal -0.217677 0.945968 0.240336
outer loop
vertex -16.155361 0.585254 -1.618320
vertex -4.786689 0.410530 9.366234
vertex 2.652950 0.451285 15.944055
endloop
endfacet
facet normal 0.217676 -0.945968 -0.240335
outer loop
vertex 9.001475 10.155410 -16.501831
vertex 11.257946 8.095396 -6.349791
vertex -4.086634 3.891599 -3.701353
endloop
endfacet
facet normal 0.217676 -0.945969 -0.240335
outer loop
vertex -4.086634 3.891599 -3.701353
vertex -9.060825 3.891599 -8.206581
vertex 6.652764 10.285622 -19.141630
endloop
endfacet
facet normal 0.217676 -0.945969 -0.240335
outer loop
vertex -4.086634 3.891599 -3.701353
vertex 6.652764 10.285622 -19.141630
vertex 9.001475 10.155410 -16.501831
endloop
endfacet
facet normal 0.240335 -0.945969 0.217676
outer loop
vertex 15.944057 -0.451290 -2.652950
vertex 16.155361 0.585253 1.618320
vertex 9.366236 -0.410535 4.786691
endloop
endfacet
facet normal 0.240335 -0.945969 0.217676
outer loop
vertex 9.366236 -0.410535 4.786691
vertex 11.309464 0.783577 7.830515
vertex 2.652950 0.451285 15.944055
endloop
endfacet
facet normal 0.240335 -0.945969 0.217676
outer loop
vertex 2.652950 0.451285 15.944055
vertex -1.618321 -0.585259 16.155359
vertex -3.701354 -3.891599 4.086636
endloop
endfacet
facet normal 0.240334 -0.945969 0.217676
outer loop
vertex 3.701354 -3.891596 -4.086637
vertex 8.206584 -3.891595 -9.060828
vertex 15.944057 -0.451290 -2.652950
endloop
endfacet
facet normal 0.240334 -0.945969 0.217676
outer loop
vertex 2.652950 0.451285 15.944055
vertex -3.701354 -3.891599 4.086636
vertex 3.701354 -3.891596 -4.086637
endloop
endfacet
facet normal 0.240334 -0.945969 0.217676
outer loop
vertex 3.701354 -3.891596 -4.086637
vertex 15.944057 -0.451290 -2.652950
vertex 9.366236 -0.410535 4.786691
endloop
endfacet
facet normal 0.240334 -0.945969 0.217676
outer loop
vertex 9.366236 -0.410535 4.786691
vertex 2.652950 0.451285 15.944055
vertex 3.701354 -3.891596 -4.086637
endloop
endfacet
facet normal -0.240334 0.945969 -0.217676
outer loop
vertex -3.701354 -3.891599 4.086636
vertex -6.349792 -8.095390 -11.257947
vertex -16.501835 -10.155400 -9.001479
endloop
endfacet
facet normal -0.240335 0.945969 -0.217676
outer loop
vertex -16.501835 -10.155400 -9.001479
vertex -19.141636 -10.285615 -6.652768
vertex -8.206584 -3.891599 9.060824
endloop
endfacet
facet normal -0.240334 0.945969 -0.217676
outer loop
vertex -16.501835 -10.155400 -9.001479
vertex -8.206584 -3.891599 9.060824
vertex -3.701354 -3.891599 4.086636
endloop
endfacet
facet normal 0.217676 0.945969 -0.240334
outer loop
vertex 15.944057 -0.451290 -2.652950
vertex 7.830515 -0.783576 -11.309464
vertex 4.786689 0.410537 -9.366234
endloop
endfacet
facet normal 0.217676 0.945969 -0.240334
outer loop
vertex 4.786689 0.410537 -9.366234
vertex 1.618321 -0.585248 -16.155359
vertex -2.652950 0.451296 -15.944055
endloop
endfacet
facet normal 0.217676 0.945969 -0.240334
outer loop
vertex -2.652950 0.451296 -15.944055
vertex -9.060825 3.891599 -8.206581
vertex -4.086634 3.891599 -3.701353
endloop
endfacet
facet normal 0.217676 0.945969 -0.240334
outer loop
vertex -4.086634 3.891599 -3.701353
vertex 4.086637 3.891595 3.701356
vertex 16.155361 0.585253 1.618320
endloop
endfacet
facet normal 0.217676 0.945969 -0.240334
outer loop
vertex 16.155361 0.585253 1.618320
vertex 15.944057 -0.451290 -2.652950
vertex 4.786689 0.410537 -9.366234
endloop
endfacet
facet normal 0.217676 0.945969 -0.240334
outer loop
vertex 4.786689 0.410537 -9.366234
vertex -2.652950 0.451296 -15.944055
vertex -4.086634 3.891599 -3.701353
endloop
endfacet
facet normal 0.217676 0.945969 -0.240334
outer loop
vertex 4.786689 0.410537 -9.366234
vertex -4.086634 3.891599 -3.701353
vertex 16.155361 0.585253 1.618320
endloop
endfacet
facet normal -0.217676 -0.945969 0.240334
outer loop
vertex -9.001475 10.155398 16.501839
vertex -11.257946 8.095392 6.349796
vertex 4.086637 3.891595 3.701356
endloop
endfacet
facet normal -0.217676 -0.945969 0.240334
outer loop
vertex 4.086637 3.891595 3.701356
vertex 9.060825 3.891593 8.206585
vertex -6.652764 10.285610 19.141638
endloop
endfacet
facet normal -0.217676 -0.945969 0.240335
outer loop
vertex 4.086637 3.891595 3.701356
vertex -6.652764 10.285610 19.141638
vertex -9.001475 10.155398 16.501839
endloop
endfacet
endsolid Exported from Blender-2.91.2
