v 14.007364 -24.013733 -67.736748
v -14.889085 -10.657730 9.529744
v -23.369873 7.857516 -33.003086
v 24.013756 14.007343 67.736740
v -97.749504 -92.157089 108.645782
v -7.857505 -23.369881 33.003075
v -14.007364 24.013779 -67.736717
v 14.889085 10.657722 9.529752
v 23.369873 -7.857496 -33.003086
v -24.013756 -14.007389 67.736740
v 97.749504 92.157028 108.645844
v 7.857505 23.369858 33.003090
v 5.484575 -10.660827 -10.346279
v -6.305778 3.315283 -24.781887
v -14.729765 -8.917152 6.143549
v 10.079950 19.172464 24.781904
v 34.558304 52.916672 12.276689
v 7.395747 12.393346 23.148653
v -8.917154 14.729769 -6.143549
v -5.484575 10.660834 -10.346272
v 14.729765 8.917149 6.143556
v -7.395747 -12.393361 23.148645
v -3.315239 -6.305726 24.781893
v -10.660831 -5.484578 10.346281
v 17.043123 -13.001799 -29.114868
v 6.305662 -3.315199 -24.781902
v -17.043123 13.001818 -29.114861
v 10.660833 5.484571 10.346285
v 3.315216 6.305671 24.781906
v 13.001807 17.043116 29.114870
v -12.393353 7.395755 -23.148642
v 12.393353 -7.395739 -23.148651
v 20.093842 -8.340118 -20.653456
v 10.657736 -14.889084 -9.529754
v 8.917154 -14.729765 -6.143559
v -8.340126 -20.093849 20.653444
v -10.079950 -19.172480 24.781889
v -92.157059 97.749527 -108.645744
v 92.157059 -97.749466 -108.645805
v -13.001807 -17.043129 29.114862
v -52.916695 34.558327 -12.276658
v 19.172472 -10.079944 -24.781900
v -34.558304 -52.916687 12.276654
v 8.340126 20.093834 20.653460
v 52.916695 -34.558311 -12.276681
v -10.657736 14.889091 -9.529742
v -20.093842 8.340134 -20.653448
v -19.172472 10.079958 -24.781893
vn -0.7192 -0.6780 -0.1518
vn 0.6780 -0.7192 0.1518
vn 0.7192 0.6780 -0.1518
vn -0.6780 0.7192 0.1518
vn 0.4200 0.7989 0.4304
vn -0.7989 0.4200 -0.4304
vn -0.4200 -0.7989 0.4304
vn -0.7989 0.4200 0.4304
vn -0.5849 -0.7667 0.2646
vn 0.5849 0.7667 -0.2646
vn 0.5849 0.7667 0.2646
vn -0.5849 -0.7667 -0.2646
vn 0.7667 -0.5849 -0.2646
vn -0.7667 0.5849 0.2646
vn -0.7667 0.5849 -0.2646
vn 0.7667 -0.5849 0.2646
vn 0.7989 -0.4200 0.4304
vn -0.4200 -0.7989 -0.4304
vn 0.4200 0.7989 -0.4304
vn 0.7989 -0.4200 -0.4304
s off
f 1//1 2//1 3//1
f 4//2 5//2 6//2
f 7//3 8//3 9//3
f 10//4 11//4 12//4
f 13//5 14//5 15//5
f 16//6 17//6 18//6
f 19//7 20//7 21//7
f 22//8 23//8 24//8
f 25//9 26//9 27//9
f 20//10 18//10 28//10
f 25//11 27//11 14//11
f 13//12 22//12 24//12
f 29//13 18//13 30//13
f 24//14 20//14 31//14
f 23//15 30//15 28//15
f 28//16 13//16 32//16
f 33//6 34//6 21//6
f 34//6 35//6 21//6
f 35//6 36//6 23//6
f 36//6 37//6 23//6
f 23//17 28//17 29//17
f 29//6 16//6 18//6
f 28//6 21//6 35//6
f 16//6 12//6 17//6
f 18//17 29//17 28//17
f 28//6 35//6 23//6
f 38//1 39//1 1//1
f 6//1 37//1 36//1
f 2//1 40//1 10//1
f 1//1 6//1 36//1
f 2//1 10//1 3//1
f 1//1 36//1 2//1
f 41//1 38//1 3//1
f 38//1 1//1 3//1
f 1//2 25//2 34//2
f 33//2 42//2 9//2
f 6//2 1//2 34//2
f 33//2 9//2 4//2
f 6//2 34//2 4//2
f 34//2 33//2 4//2
f 5//2 43//2 6//2
f 4//2 11//2 5//2
f 39//3 38//3 7//3
f 12//3 16//3 44//3
f 8//3 30//3 4//3
f 7//3 12//3 44//3
f 8//3 4//3 9//3
f 7//3 44//3 8//3
f 45//3 39//3 9//3
f 39//3 7//3 9//3
f 7//4 27//4 46//4
f 47//4 48//4 3//4
f 12//4 7//4 46//4
f 47//4 3//4 10//4
f 12//4 46//4 10//4
f 46//4 47//4 10//4
f 11//4 17//4 12//4
f 10//4 5//4 11//4
f 45//5 9//5 42//5
f 42//5 26//5 32//5
f 26//18 13//18 14//18
f 32//18 13//18 26//18
f 14//5 48//5 47//5
f 15//5 2//5 35//5
f 2//5 36//5 35//5
f 14//5 47//5 15//5
f 32//5 45//5 42//5
f 35//5 13//5 15//5
f 41//7 3//7 48//7
f 14//19 20//19 26//19
f 26//7 42//7 33//7
f 41//7 48//7 31//7
f 48//7 14//7 31//7
f 26//7 33//7 21//7
f 20//7 26//7 21//7
f 21//7 8//7 19//7
f 8//7 44//7 19//7
f 20//19 14//19 31//19
f 24//20 15//20 19//20
f 15//20 47//20 46//20
f 19//20 15//20 46//20
f 19//20 44//20 29//20
f 44//20 16//20 29//20
f 29//8 24//8 23//8
f 19//20 29//20 24//20
f 37//20 6//20 43//20
f 37//20 43//20 22//20
f 23//20 37//20 22//20
f 25//9 1//9 45//9
f 1//9 39//9 45//9
f 45//9 32//9 25//9
f 26//9 20//9 27//9
f 20//9 19//9 46//9
f 27//9 20//9 46//9
f 25//9 32//9 26//9
f 28//10 32//10 20//10
f 32//10 26//10 20//10
f 13//11 35//11 34//11
f 27//11 7//11 41//11
f 7//11 38//11 41//11
f 41//11 31//11 27//11
f 14//11 13//11 25//11
f 13//11 34//11 25//11
f 27//11 31//11 14//11
f 24//12 31//12 13//12
f 31//12 14//12 13//12
f 15//13 24//13 2//13
f 24//13 29//13 40//13
f 2//13 24//13 40//13
f 18//13 17//13 30//13
f 17//13 11//13 4//13
f 30//13 17//13 4//13
f 30//13 40//13 29//13
f 20//14 24//14 18//14
f 18//14 24//14 29//14
f 23//15 22//15 40//15
f 22//15 43//15 40//15
f 43//15 5//15 10//15
f 43//15 10//15 40//15
f 30//15 8//15 28//15
f 8//15 21//15 28//15
f 23//15 40//15 30//15
f 13//16 28//16 22//16
f 22//16 28//16 23//16
